<?xml version="1.0" encoding="UTF-8" standalone="no"?>
<!DOCTYPE svg PUBLIC "-//W3C//DTD SVG 1.1//EN"
 "http://www.w3.org/Graphics/SVG/1.1/DTD/svg11.dtd">
<!-- Generated by graphviz version 7.0.6 (20230106.0513)
 -->
<!-- Title: fwd_pass Pages: 1 -->
<svg width="862pt" height="191pt"
 viewBox="0.00 0.00 861.67 191.00" xmlns="http://www.w3.org/2000/svg" xmlns:xlink="http://www.w3.org/1999/xlink">
<g id="graph0" class="graph" transform="scale(1 1) rotate(0) translate(4 187)">
<title>fwd_pass</title>
<polygon fill="white" stroke="none" points="-4,4 -4,-187 857.67,-187 857.67,4 -4,4"/>
<!-- 4516503872 -->
<g id="node1" class="node">
<title>4516503872</title>
<ellipse fill="none" stroke="black" cx="812.73" cy="-37" rx="40.89" ry="18"/>
<text text-anchor="middle" x="812.73" y="-33.3" font-family="Times,serif" font-size="14.00">Softmax</text>
</g>
<!-- 4516501952 -->
<g id="node2" class="node">
<title>4516501952</title>
<ellipse fill="none" stroke="black" cx="692.78" cy="-37" rx="27" ry="18"/>
<text text-anchor="middle" x="692.78" y="-33.3" font-family="Times,serif" font-size="14.00">Add</text>
</g>
<!-- 4516501952&#45;&gt;4516503872 -->
<g id="edge10" class="edge">
<title>4516501952&#45;&gt;4516503872</title>
<path fill="none" stroke="black" d="M720.25,-37C732.03,-37 746.33,-37 760.08,-37"/>
<polygon fill="black" stroke="black" points="759.93,-40.5 769.93,-37 759.93,-33.5 759.93,-40.5"/>
<text text-anchor="middle" x="745.78" y="-40.8" font-family="Times,serif" font-size="14.00">Z2</text>
</g>
<!-- 4516511072 -->
<g id="node3" class="node">
<title>4516511072</title>
<ellipse fill="none" stroke="black" cx="534.48" cy="-72" rx="40.09" ry="18"/>
<text text-anchor="middle" x="534.48" y="-68.3" font-family="Times,serif" font-size="14.00">MatMul</text>
</g>
<!-- 4516511072&#45;&gt;4516501952 -->
<g id="edge8" class="edge">
<title>4516511072&#45;&gt;4516501952</title>
<path fill="none" stroke="black" d="M570.95,-64.06C596.26,-58.39 630.18,-50.8 655.63,-45.09"/>
<polygon fill="black" stroke="black" points="656.2,-48.55 665.2,-42.95 654.67,-41.72 656.2,-48.55"/>
<text text-anchor="middle" x="620.28" y="-61.8" font-family="Times,serif" font-size="14.00">Z1 @ W2</text>
</g>
<!-- 4516498688 -->
<g id="node4" class="node">
<title>4516498688</title>
<ellipse fill="none" stroke="black" cx="409.89" cy="-103" rx="27.1" ry="18"/>
<text text-anchor="middle" x="409.89" y="-99.3" font-family="Times,serif" font-size="14.00">Relu</text>
</g>
<!-- 4516498688&#45;&gt;4516511072 -->
<g id="edge6" class="edge">
<title>4516498688&#45;&gt;4516511072</title>
<path fill="none" stroke="black" d="M435.7,-96.73C450.69,-92.94 470.27,-87.99 487.96,-83.51"/>
<polygon fill="black" stroke="black" points="488.65,-86.95 497.49,-81.1 486.94,-80.16 488.65,-86.95"/>
<text text-anchor="middle" x="465.69" y="-94.8" font-family="Times,serif" font-size="14.00">A1</text>
</g>
<!-- 4516498784 -->
<g id="node5" class="node">
<title>4516498784</title>
<ellipse fill="none" stroke="black" cx="303.59" cy="-103" rx="27" ry="18"/>
<text text-anchor="middle" x="303.59" y="-99.3" font-family="Times,serif" font-size="14.00">Add</text>
</g>
<!-- 4516498784&#45;&gt;4516498688 -->
<g id="edge5" class="edge">
<title>4516498784&#45;&gt;4516498688</title>
<path fill="none" stroke="black" d="M330.91,-103C343.14,-103 357.9,-103 371.28,-103"/>
<polygon fill="black" stroke="black" points="371.07,-106.5 381.07,-103 371.07,-99.5 371.07,-106.5"/>
<text text-anchor="middle" x="356.59" y="-106.8" font-family="Times,serif" font-size="14.00">Z1</text>
</g>
<!-- 4516497824 -->
<g id="node6" class="node">
<title>4516497824</title>
<ellipse fill="none" stroke="black" cx="151.3" cy="-138" rx="40.09" ry="18"/>
<text text-anchor="middle" x="151.3" y="-134.3" font-family="Times,serif" font-size="14.00">MatMul</text>
</g>
<!-- 4516497824&#45;&gt;4516498784 -->
<g id="edge3" class="edge">
<title>4516497824&#45;&gt;4516498784</title>
<path fill="none" stroke="black" d="M187.53,-129.79C211.39,-124.24 242.82,-116.92 266.79,-111.34"/>
<polygon fill="black" stroke="black" points="267.48,-114.77 276.43,-109.09 265.89,-107.95 267.48,-114.77"/>
<text text-anchor="middle" x="234.09" y="-126.8" font-family="Times,serif" font-size="14.00">X @ W1</text>
</g>
<!-- 4516495904 -->
<g id="node7" class="node">
<title>4516495904</title>
<ellipse fill="none" stroke="black" cx="27" cy="-165" rx="27" ry="18"/>
<text text-anchor="middle" x="27" y="-161.3" font-family="Times,serif" font-size="14.00">X</text>
</g>
<!-- 4516495904&#45;&gt;4516497824 -->
<g id="edge1" class="edge">
<title>4516495904&#45;&gt;4516497824</title>
<path fill="none" stroke="black" d="M53.04,-159.47C67.6,-156.26 86.42,-152.1 103.62,-148.31"/>
<polygon fill="black" stroke="black" points="104.13,-151.78 113.14,-146.2 102.62,-144.94 104.13,-151.78"/>
<text text-anchor="middle" x="82.5" y="-157.8" font-family="Times,serif" font-size="14.00">X</text>
</g>
<!-- 4516509056 -->
<g id="node8" class="node">
<title>4516509056</title>
<ellipse fill="none" stroke="black" cx="27" cy="-111" rx="27" ry="18"/>
<text text-anchor="middle" x="27" y="-107.3" font-family="Times,serif" font-size="14.00">W1</text>
</g>
<!-- 4516509056&#45;&gt;4516497824 -->
<g id="edge2" class="edge">
<title>4516509056&#45;&gt;4516497824</title>
<path fill="none" stroke="black" d="M53.04,-116.53C67.6,-119.74 86.42,-123.9 103.62,-127.69"/>
<polygon fill="black" stroke="black" points="102.62,-131.06 113.14,-129.8 104.13,-124.22 102.62,-131.06"/>
<text text-anchor="middle" x="82.5" y="-128.8" font-family="Times,serif" font-size="14.00">W1</text>
</g>
<!-- 4516497392 -->
<g id="node9" class="node">
<title>4516497392</title>
<ellipse fill="none" stroke="black" cx="151.3" cy="-84" rx="27" ry="18"/>
<text text-anchor="middle" x="151.3" y="-80.3" font-family="Times,serif" font-size="14.00">b1</text>
</g>
<!-- 4516497392&#45;&gt;4516498784 -->
<g id="edge4" class="edge">
<title>4516497392&#45;&gt;4516498784</title>
<path fill="none" stroke="black" d="M178.63,-85.21C200.21,-86.45 231.51,-88.8 258.59,-93 261.27,-93.42 264.03,-93.9 266.8,-94.43"/>
<polygon fill="black" stroke="black" points="266.05,-97.85 276.56,-96.48 267.49,-91 266.05,-97.85"/>
<text text-anchor="middle" x="234.09" y="-96.8" font-family="Times,serif" font-size="14.00">b1</text>
</g>
<!-- 4516496672 -->
<g id="node10" class="node">
<title>4516496672</title>
<ellipse fill="none" stroke="black" cx="409.89" cy="-49" rx="27" ry="18"/>
<text text-anchor="middle" x="409.89" y="-45.3" font-family="Times,serif" font-size="14.00">W2</text>
</g>
<!-- 4516496672&#45;&gt;4516511072 -->
<g id="edge7" class="edge">
<title>4516496672&#45;&gt;4516511072</title>
<path fill="none" stroke="black" d="M436.73,-51.94C448.77,-53.47 463.26,-55.54 476.19,-58 480.03,-58.73 483.99,-59.56 487.96,-60.43"/>
<polygon fill="black" stroke="black" points="487.06,-63.81 497.59,-62.64 488.63,-56.99 487.06,-63.81"/>
<text text-anchor="middle" x="465.69" y="-61.8" font-family="Times,serif" font-size="14.00">W2</text>
</g>
<!-- 4516506896 -->
<g id="node11" class="node">
<title>4516506896</title>
<ellipse fill="none" stroke="black" cx="534.48" cy="-18" rx="27" ry="18"/>
<text text-anchor="middle" x="534.48" y="-14.3" font-family="Times,serif" font-size="14.00">b2</text>
</g>
<!-- 4516506896&#45;&gt;4516501952 -->
<g id="edge9" class="edge">
<title>4516506896&#45;&gt;4516501952</title>
<path fill="none" stroke="black" d="M561.93,-19.05C584.76,-20.21 618.59,-22.54 647.78,-27 650.46,-27.41 653.22,-27.89 655.99,-28.42"/>
<polygon fill="black" stroke="black" points="655.25,-31.84 665.75,-30.46 656.68,-24.99 655.25,-31.84"/>
<text text-anchor="middle" x="620.28" y="-30.8" font-family="Times,serif" font-size="14.00">b2</text>
</g>
</g>
</svg>
