<?xml version="1.0" encoding="UTF-8" standalone="no"?>
<!DOCTYPE svg PUBLIC "-//W3C//DTD SVG 1.1//EN"
 "http://www.w3.org/Graphics/SVG/1.1/DTD/svg11.dtd">
<!-- Generated by graphviz version 7.0.6 (20230106.0513)
 -->
<!-- Title: fwd_pass Pages: 1 -->
<svg width="614pt" height="128pt"
 viewBox="0.00 0.00 614.09 128.00" xmlns="http://www.w3.org/2000/svg" xmlns:xlink="http://www.w3.org/1999/xlink">
<g id="graph0" class="graph" transform="scale(1 1) rotate(0) translate(4 124)">
<title>fwd_pass</title>
<polygon fill="white" stroke="none" points="-4,4 -4,-124 610.09,-124 610.09,4 -4,4"/>
<!-- 4516507376 -->
<g id="node1" class="node">
<title>4516507376</title>
<ellipse fill="none" stroke="black" cx="563.84" cy="-18" rx="42.49" ry="18"/>
<text text-anchor="middle" x="563.84" y="-14.3" font-family="Times,serif" font-size="14.00">Multiply</text>
</g>
<!-- 4516759200 -->
<g id="node2" class="node">
<title>4516759200</title>
<ellipse fill="none" stroke="black" cx="127" cy="-18" rx="27" ry="18"/>
<text text-anchor="middle" x="127" y="-14.3" font-family="Times,serif" font-size="14.00">Exp</text>
</g>
<!-- 4516759200&#45;&gt;4516507376 -->
<g id="edge2" class="edge">
<title>4516759200&#45;&gt;4516507376</title>
<path fill="none" stroke="black" d="M154.22,-18C224.04,-18 415.52,-18 509.46,-18"/>
<polygon fill="black" stroke="black" points="509.44,-21.5 519.44,-18 509.44,-14.5 509.44,-21.5"/>
<text text-anchor="middle" x="313.1" y="-21.8" font-family="Times,serif" font-size="14.00">e^X</text>
</g>
<!-- 4516758192 -->
<g id="node5" class="node">
<title>4516758192</title>
<ellipse fill="none" stroke="black" cx="240.3" cy="-102" rx="27.1" ry="18"/>
<text text-anchor="middle" x="240.3" y="-98.3" font-family="Times,serif" font-size="14.00">Sum</text>
</g>
<!-- 4516759200&#45;&gt;4516758192 -->
<g id="edge3" class="edge">
<title>4516759200&#45;&gt;4516758192</title>
<path fill="none" stroke="black" d="M145.39,-31.12C163.42,-44.73 191.82,-66.17 212.68,-81.91"/>
<polygon fill="black" stroke="black" points="210.36,-84.55 220.45,-87.78 214.58,-78.96 210.36,-84.55"/>
<text text-anchor="middle" x="183.5" y="-70.8" font-family="Times,serif" font-size="14.00">e^X</text>
</g>
<!-- 4516758288 -->
<g id="node3" class="node">
<title>4516758288</title>
<ellipse fill="none" stroke="black" cx="27" cy="-18" rx="27" ry="18"/>
<text text-anchor="middle" x="27" y="-14.3" font-family="Times,serif" font-size="14.00">X</text>
</g>
<!-- 4516758288&#45;&gt;4516759200 -->
<g id="edge1" class="edge">
<title>4516758288&#45;&gt;4516759200</title>
<path fill="none" stroke="black" d="M54.26,-18C64.7,-18 76.9,-18 88.25,-18"/>
<polygon fill="black" stroke="black" points="88.15,-21.5 98.15,-18 88.15,-14.5 88.15,-21.5"/>
<text text-anchor="middle" x="77" y="-21.8" font-family="Times,serif" font-size="14.00">X</text>
</g>
<!-- 4516758528 -->
<g id="node4" class="node">
<title>4516758528</title>
<ellipse fill="none" stroke="black" cx="385.6" cy="-48" rx="27" ry="18"/>
<text text-anchor="middle" x="385.6" y="-44.3" font-family="Times,serif" font-size="14.00">Pow</text>
</g>
<!-- 4516758528&#45;&gt;4516507376 -->
<g id="edge6" class="edge">
<title>4516758528&#45;&gt;4516507376</title>
<path fill="none" stroke="black" d="M412.22,-43.64C438.44,-39.17 479.87,-32.12 512.64,-26.54"/>
<polygon fill="black" stroke="black" points="513.07,-30.02 522.34,-24.89 511.9,-23.12 513.07,-30.02"/>
<text text-anchor="middle" x="467.1" y="-42.8" font-family="Times,serif" font-size="14.00">1 / sum(e^X)</text>
</g>
<!-- 4516758192&#45;&gt;4516758528 -->
<g id="edge4" class="edge">
<title>4516758192&#45;&gt;4516758528</title>
<path fill="none" stroke="black" d="M265.14,-94.11C285.36,-87.3 315.06,-77 340.6,-67 344.46,-65.48 348.5,-63.84 352.49,-62.17"/>
<polygon fill="black" stroke="black" points="353.57,-65.51 361.39,-58.36 350.82,-59.07 353.57,-65.51"/>
<text text-anchor="middle" x="313.1" y="-89.8" font-family="Times,serif" font-size="14.00">sum(e^X)</text>
</g>
<!-- 4516758240 -->
<g id="node6" class="node">
<title>4516758240</title>
<ellipse fill="none" stroke="black" cx="240.3" cy="-48" rx="27" ry="18"/>
<text text-anchor="middle" x="240.3" y="-44.3" font-family="Times,serif" font-size="14.00">&#45;1</text>
</g>
<!-- 4516758240&#45;&gt;4516758528 -->
<g id="edge5" class="edge">
<title>4516758240&#45;&gt;4516758528</title>
<path fill="none" stroke="black" d="M267.58,-48C289.9,-48 322.2,-48 347.21,-48"/>
<polygon fill="black" stroke="black" points="346.97,-51.5 356.97,-48 346.97,-44.5 346.97,-51.5"/>
<text text-anchor="middle" x="313.1" y="-51.8" font-family="Times,serif" font-size="14.00">&#45;1</text>
</g>
</g>
</svg>
