<?xml version="1.0" encoding="UTF-8" standalone="no"?>
<!DOCTYPE svg PUBLIC "-//W3C//DTD SVG 1.1//EN"
 "http://www.w3.org/Graphics/SVG/1.1/DTD/svg11.dtd">
<!-- Generated by graphviz version 7.0.6 (20230106.0513)
 -->
<!-- Title: fwd_pass Pages: 1 -->
<svg width="678pt" height="139pt"
 viewBox="0.00 0.00 678.09 139.00" xmlns="http://www.w3.org/2000/svg" xmlns:xlink="http://www.w3.org/1999/xlink">
<g id="graph0" class="graph" transform="scale(1 1) rotate(0) translate(4 135)">
<title>fwd_pass</title>
<polygon fill="white" stroke="none" points="-4,4 -4,-135 674.09,-135 674.09,4 -4,4"/>
<!-- 4516507376 -->
<g id="node1" class="node">
<title>4516507376</title>
<ellipse fill="none" stroke="black" cx="42.25" cy="-95" rx="42.49" ry="18"/>
<text text-anchor="middle" x="42.25" y="-91.3" font-family="Times,serif" font-size="14.00">Multiply</text>
</g>
<!-- 4516759200 -->
<g id="node2" class="node">
<title>4516759200</title>
<ellipse fill="none" stroke="black" cx="527.09" cy="-95" rx="27" ry="18"/>
<text text-anchor="middle" x="527.09" y="-91.3" font-family="Times,serif" font-size="14.00">Exp</text>
</g>
<!-- 4516507376&#45;&gt;4516759200 -->
<g id="edge2" class="edge">
<title>4516507376&#45;&gt;4516759200</title>
<path fill="none" stroke="red" d="M82.03,-101.75C88.83,-102.69 95.85,-103.5 102.49,-104 270.72,-116.7 314.24,-120.99 482.09,-104 484.61,-103.74 487.2,-103.41 489.8,-103.02"/>
<polygon fill="red" stroke="red" points="490.36,-106.47 499.6,-101.29 489.15,-99.58 490.36,-106.47"/>
<text text-anchor="middle" x="316.99" y="-119.8" font-family="Times,serif" font-size="14.00">d(e^X)</text>
</g>
<!-- 4516758528 -->
<g id="node4" class="node">
<title>4516758528</title>
<ellipse fill="none" stroke="black" cx="236.49" cy="-72" rx="27" ry="18"/>
<text text-anchor="middle" x="236.49" y="-68.3" font-family="Times,serif" font-size="14.00">Pow</text>
</g>
<!-- 4516507376&#45;&gt;4516758528 -->
<g id="edge6" class="edge">
<title>4516507376&#45;&gt;4516758528</title>
<path fill="none" stroke="red" d="M83.55,-90.18C117.38,-86.13 165.33,-80.39 198.26,-76.45"/>
<polygon fill="red" stroke="red" points="198.65,-79.93 208.16,-75.27 197.82,-72.98 198.65,-79.93"/>
<text text-anchor="middle" x="146.99" y="-91.8" font-family="Times,serif" font-size="14.00">d(1 / sum(e^X))</text>
</g>
<!-- 4516758288 -->
<g id="node3" class="node">
<title>4516758288</title>
<ellipse fill="none" stroke="black" cx="643.09" cy="-95" rx="27" ry="18"/>
<text text-anchor="middle" x="643.09" y="-91.3" font-family="Times,serif" font-size="14.00">X</text>
</g>
<!-- 4516759200&#45;&gt;4516758288 -->
<g id="edge1" class="edge">
<title>4516759200&#45;&gt;4516758288</title>
<path fill="none" stroke="red" d="M554.53,-95C569.35,-95 588.08,-95 604.41,-95"/>
<polygon fill="red" stroke="red" points="604.28,-98.5 614.28,-95 604.28,-91.5 604.28,-98.5"/>
<text text-anchor="middle" x="585.09" y="-98.8" font-family="Times,serif" font-size="14.00">d(X)</text>
</g>
<!-- 4516758192 -->
<g id="node5" class="node">
<title>4516758192</title>
<ellipse fill="none" stroke="black" cx="397.79" cy="-72" rx="27.1" ry="18"/>
<text text-anchor="middle" x="397.79" y="-68.3" font-family="Times,serif" font-size="14.00">Sum</text>
</g>
<!-- 4516758528&#45;&gt;4516758192 -->
<g id="edge4" class="edge">
<title>4516758528&#45;&gt;4516758192</title>
<path fill="none" stroke="red" d="M263.8,-72C289.74,-72 329.65,-72 358.99,-72"/>
<polygon fill="red" stroke="red" points="358.93,-75.5 368.93,-72 358.93,-68.5 358.93,-75.5"/>
<text text-anchor="middle" x="316.99" y="-75.8" font-family="Times,serif" font-size="14.00">d(sum(e^X))</text>
</g>
<!-- 4516758240 -->
<g id="node6" class="node">
<title>4516758240</title>
<ellipse fill="none" stroke="black" cx="397.79" cy="-18" rx="27" ry="18"/>
<text text-anchor="middle" x="397.79" y="-14.3" font-family="Times,serif" font-size="14.00">&#45;1</text>
</g>
<!-- 4516758528&#45;&gt;4516758240 -->
<g id="edge5" class="edge">
<title>4516758528&#45;&gt;4516758240</title>
<path fill="none" stroke="red" d="M261,-64.03C287.82,-54.94 331.93,-39.99 362.57,-29.6"/>
<polygon fill="red" stroke="red" points="363.41,-33.01 371.76,-26.49 361.16,-26.38 363.41,-33.01"/>
</g>
<!-- 4516758192&#45;&gt;4516759200 -->
<g id="edge3" class="edge">
<title>4516758192&#45;&gt;4516759200</title>
<path fill="none" stroke="red" d="M424.24,-76.6C442.98,-79.98 468.72,-84.63 489.63,-88.41"/>
<polygon fill="red" stroke="red" points="488.72,-91.81 499.19,-90.14 489.97,-84.92 488.72,-91.81"/>
<text text-anchor="middle" x="462.59" y="-90.8" font-family="Times,serif" font-size="14.00">d(e^X)</text>
</g>
</g>
</svg>
