<?xml version="1.0" encoding="UTF-8" standalone="no"?>
<!DOCTYPE svg PUBLIC "-//W3C//DTD SVG 1.1//EN"
 "http://www.w3.org/Graphics/SVG/1.1/DTD/svg11.dtd">
<!-- Generated by graphviz version 7.0.6 (20230106.0513)
 -->
<!-- Title: fwd_pass Pages: 1 -->
<svg width="955pt" height="191pt"
 viewBox="0.00 0.00 954.67 191.00" xmlns="http://www.w3.org/2000/svg" xmlns:xlink="http://www.w3.org/1999/xlink">
<g id="graph0" class="graph" transform="scale(1 1) rotate(0) translate(4 187)">
<title>fwd_pass</title>
<polygon fill="white" stroke="none" points="-4,4 -4,-187 950.67,-187 950.67,4 -4,4"/>
<!-- 4516503872 -->
<g id="node1" class="node">
<title>4516503872</title>
<ellipse fill="none" stroke="black" cx="40.95" cy="-37" rx="40.89" ry="18"/>
<text text-anchor="middle" x="40.95" y="-33.3" font-family="Times,serif" font-size="14.00">Softmax</text>
</g>
<!-- 4516501952 -->
<g id="node2" class="node">
<title>4516501952</title>
<ellipse fill="none" stroke="black" cx="175.89" cy="-37" rx="27" ry="18"/>
<text text-anchor="middle" x="175.89" y="-33.3" font-family="Times,serif" font-size="14.00">Add</text>
</g>
<!-- 4516503872&#45;&gt;4516501952 -->
<g id="edge10" class="edge">
<title>4516503872&#45;&gt;4516501952</title>
<path fill="none" stroke="red" d="M82.2,-37C99.71,-37 120.11,-37 137.31,-37"/>
<polygon fill="red" stroke="red" points="137.11,-40.5 147.11,-37 137.11,-33.5 137.11,-40.5"/>
<text text-anchor="middle" x="115.39" y="-40.8" font-family="Times,serif" font-size="14.00">d(Z2)</text>
</g>
<!-- 4516511072 -->
<g id="node3" class="node">
<title>4516511072</title>
<ellipse fill="none" stroke="black" cx="349.19" cy="-72" rx="40.09" ry="18"/>
<text text-anchor="middle" x="349.19" y="-68.3" font-family="Times,serif" font-size="14.00">MatMul</text>
</g>
<!-- 4516501952&#45;&gt;4516511072 -->
<g id="edge8" class="edge">
<title>4516501952&#45;&gt;4516511072</title>
<path fill="none" stroke="red" d="M202.17,-42.16C228.14,-47.47 269.19,-55.86 301.16,-62.39"/>
<polygon fill="red" stroke="red" points="300.06,-65.74 310.56,-64.31 301.46,-58.88 300.06,-65.74"/>
<text text-anchor="middle" x="255.89" y="-62.8" font-family="Times,serif" font-size="14.00">d(Z1 @ W2)</text>
</g>
<!-- 4516506896 -->
<g id="node11" class="node">
<title>4516506896</title>
<ellipse fill="none" stroke="black" cx="349.19" cy="-18" rx="27" ry="18"/>
<text text-anchor="middle" x="349.19" y="-14.3" font-family="Times,serif" font-size="14.00">b2</text>
</g>
<!-- 4516501952&#45;&gt;4516506896 -->
<g id="edge9" class="edge">
<title>4516501952&#45;&gt;4516506896</title>
<path fill="none" stroke="red" d="M201.43,-30.72C207.74,-29.31 214.54,-27.94 220.89,-27 250.79,-22.57 284.96,-20.31 310.37,-19.16"/>
<polygon fill="red" stroke="red" points="310.37,-22.66 320.22,-18.75 310.08,-15.67 310.37,-22.66"/>
<text text-anchor="middle" x="255.89" y="-30.8" font-family="Times,serif" font-size="14.00">d(b2)</text>
</g>
<!-- 4516498688 -->
<g id="node4" class="node">
<title>4516498688</title>
<ellipse fill="none" stroke="black" cx="489.78" cy="-103" rx="27.1" ry="18"/>
<text text-anchor="middle" x="489.78" y="-99.3" font-family="Times,serif" font-size="14.00">Relu</text>
</g>
<!-- 4516511072&#45;&gt;4516498688 -->
<g id="edge6" class="edge">
<title>4516511072&#45;&gt;4516498688</title>
<path fill="none" stroke="red" d="M385.52,-79.9C406,-84.48 431.73,-90.24 452.38,-94.86"/>
<polygon fill="red" stroke="red" points="451.57,-98.26 462.1,-97.03 453.1,-91.43 451.57,-98.26"/>
<text text-anchor="middle" x="425.99" y="-95.8" font-family="Times,serif" font-size="14.00">d(A1)</text>
</g>
<!-- 4516496672 -->
<g id="node10" class="node">
<title>4516496672</title>
<ellipse fill="none" stroke="black" cx="489.78" cy="-49" rx="27" ry="18"/>
<text text-anchor="middle" x="489.78" y="-45.3" font-family="Times,serif" font-size="14.00">W2</text>
</g>
<!-- 4516511072&#45;&gt;4516496672 -->
<g id="edge7" class="edge">
<title>4516511072&#45;&gt;4516496672</title>
<path fill="none" stroke="red" d="M384.27,-62.91C391.87,-61.09 399.92,-59.34 407.49,-58 421.8,-55.47 437.66,-53.52 451.54,-52.1"/>
<polygon fill="red" stroke="red" points="451.54,-55.62 461.16,-51.17 450.87,-48.65 451.54,-55.62"/>
<text text-anchor="middle" x="425.99" y="-61.8" font-family="Times,serif" font-size="14.00">d(W2)</text>
</g>
<!-- 4516498784 -->
<g id="node5" class="node">
<title>4516498784</title>
<ellipse fill="none" stroke="black" cx="611.08" cy="-103" rx="27" ry="18"/>
<text text-anchor="middle" x="611.08" y="-99.3" font-family="Times,serif" font-size="14.00">Add</text>
</g>
<!-- 4516498688&#45;&gt;4516498784 -->
<g id="edge5" class="edge">
<title>4516498688&#45;&gt;4516498784</title>
<path fill="none" stroke="red" d="M517.26,-103C533.4,-103 554.29,-103 572.17,-103"/>
<polygon fill="red" stroke="red" points="572.17,-106.5 582.17,-103 572.17,-99.5 572.17,-106.5"/>
<text text-anchor="middle" x="550.58" y="-106.8" font-family="Times,serif" font-size="14.00">d(Z1)</text>
</g>
<!-- 4516497824 -->
<g id="node6" class="node">
<title>4516497824</title>
<ellipse fill="none" stroke="black" cx="779.38" cy="-138" rx="40.09" ry="18"/>
<text text-anchor="middle" x="779.38" y="-134.3" font-family="Times,serif" font-size="14.00">MatMul</text>
</g>
<!-- 4516498784&#45;&gt;4516497824 -->
<g id="edge3" class="edge">
<title>4516498784&#45;&gt;4516497824</title>
<path fill="none" stroke="red" d="M637.34,-108.32C662.15,-113.54 700.62,-121.64 731.12,-128.05"/>
<polygon fill="red" stroke="red" points="730.39,-131.48 740.9,-130.11 731.83,-124.63 730.39,-131.48"/>
<text text-anchor="middle" x="688.58" y="-128.8" font-family="Times,serif" font-size="14.00">d(X @ W1)</text>
</g>
<!-- 4516497392 -->
<g id="node9" class="node">
<title>4516497392</title>
<ellipse fill="none" stroke="black" cx="779.38" cy="-84" rx="27" ry="18"/>
<text text-anchor="middle" x="779.38" y="-80.3" font-family="Times,serif" font-size="14.00">b1</text>
</g>
<!-- 4516498784&#45;&gt;4516497392 -->
<g id="edge4" class="edge">
<title>4516498784&#45;&gt;4516497392</title>
<path fill="none" stroke="red" d="M636.62,-96.74C642.93,-95.32 649.73,-93.95 656.08,-93 684.31,-88.78 716.51,-86.51 740.78,-85.31"/>
<polygon fill="red" stroke="red" points="740.67,-88.82 750.5,-84.87 740.35,-81.82 740.67,-88.82"/>
<text text-anchor="middle" x="688.58" y="-96.8" font-family="Times,serif" font-size="14.00">d(b1)</text>
</g>
<!-- 4516495904 -->
<g id="node7" class="node">
<title>4516495904</title>
<ellipse fill="none" stroke="black" cx="919.67" cy="-165" rx="27" ry="18"/>
<text text-anchor="middle" x="919.67" y="-161.3" font-family="Times,serif" font-size="14.00">X</text>
</g>
<!-- 4516497824&#45;&gt;4516495904 -->
<g id="edge1" class="edge">
<title>4516497824&#45;&gt;4516495904</title>
<path fill="none" stroke="red" d="M816.71,-145.09C836.92,-149.04 861.99,-153.93 882.21,-157.88"/>
<polygon fill="red" stroke="red" points="881.51,-161.31 892,-159.79 882.85,-154.44 881.51,-161.31"/>
</g>
<!-- 4516509056 -->
<g id="node8" class="node">
<title>4516509056</title>
<ellipse fill="none" stroke="black" cx="919.67" cy="-111" rx="27" ry="18"/>
<text text-anchor="middle" x="919.67" y="-107.3" font-family="Times,serif" font-size="14.00">W1</text>
</g>
<!-- 4516497824&#45;&gt;4516509056 -->
<g id="edge2" class="edge">
<title>4516497824&#45;&gt;4516509056</title>
<path fill="none" stroke="red" d="M816.71,-130.91C836.92,-126.96 861.99,-122.07 882.21,-118.12"/>
<polygon fill="red" stroke="red" points="882.85,-121.56 892,-116.21 881.51,-114.69 882.85,-121.56"/>
<text text-anchor="middle" x="856.17" y="-129.8" font-family="Times,serif" font-size="14.00">d(W1)</text>
</g>
</g>
</svg>
