<svg host="65bd71144e" xmlns="http://www.w3.org/2000/svg" style="background: transparent; background-color: transparent;" xmlns:xlink="http://www.w3.org/1999/xlink" version="1.1" width="761px" height="922px" viewBox="-0.5 -0.5 761 922" content="&lt;mxfile&gt;&lt;diagram id=&quot;R_0M_iVFnCcGXWVunbby&quot; name=&quot;Page-1&quot;&gt;5Vpdc5s4FP01fiwjJD4fmzTdfdid6Uwe9rEjgwwaC8SCHNv761cyAoORY9qIpEnxxIEryULnHF3dK1ih++LwR42r/G+eEraCID2s0JcVhJEXy29lOLaGAHitIatp2prcs+GR/ke0EWjrjqakGVUUnDNBq7Ex4WVJEjGy4brm+3G1DWfjXiuckYnhMcFsav2HpiLXw/LB2f4noVne9ewCXVLgrrI2NDlO+X5gQg8rdF9zLtqz4nBPmMKuw6Vt9/VKaX9jNSnFnAawbfCE2U6PTd+XOHaDrfmuTImq767Q3T6ngjxWOFGle8mutOWiYLp4Qxm754zX8rrkpax0h+tEM+iqGrpDUgtyuHrTbg+FlBDhBRH1UVbRDTwN3nF8uT9TEQbalg9o8LqKWNOf9b98RkieaJDMgKHlAbOAUBCNIYqmEEUmhCwAFHwARfnwNSUV3UYsk5BVV8ep3Rxed9XBj44fomgEQO9pBwCg0J8CEFsYv28Yf8CE4p7L2x8CEfy7413Bp+akgc+yghtUh5MQunJ5lqn/33AjiKywpoyqP3m6q9lpDLWyO47T9SXvsu2ubTmhQIIuxsrEjGalPE8kyETK805RQ+Uq8VkXFDRNVXOjxM+TAMzVcPQshyh2vBAFkSfJ82GAXH9EqYFRNwodA6fIAqfebU0PkOyA+wuvCfvGGyooVwCuuRC8MEHNVM07nGyzE46dg1hBtDkdBjYEV7A3oubbftWGvWXwCwBE4KsipV+c1UWKm7ynS5ZUahjFIVMBjkN5EzpUzsPGYbTc2iE0dqIhm2F8i0/ZIugqR7ESwzLkdl0v67GugKOH/+k1PVT4qyz6wIzJa2AQ/7YzuuJU3+OLSOrcNIwcF459s2/QsutI8+DwFprLMwLaZktEkmugNBoPT3LAjWb7OqwDSYxZ0bIfzgRJlA/Up1PDQDeTNfaqsMwi4TshHbPsvUsIgUmDlyLgmw1NiCNVkJBKNM6TTDv594rho52w8yJK94OpDjxT2Nk3fBHztiP1QVg+O6R5Hp8ekGcAgsCYyNgAaEZg/tNuX/k1X310NDuwt4fJjwWnwxa245A/QKYA0eB1bKQ87ozV5IegXQIQQ9JsBCSwAAicEVK9NSChYZkyAgJtAOK+A0DmKsTGlDGmyXbctW/JXQdBOHbXcTzBp9tosK4XeBueXyE+nUZCL45PydHWrmEYOePAVKaTU4UbEozIAoG2kyz7+vZDdFPfMVxI3+9kR2UBfTPOt7TMvmcMN40lpXvhHKUbIkvXBpe2A0v7Ug9d+HaufEZK+kGlLluUlgiE/kThaKpw16BwaIHCdxDfR3MTHhvxPXoH8X0MZgJiY98J2X6QuoAPBOBiCvmhYYMmNj1DseEH0e8b0ia8qHhjKawNwSWL7lTnBg4724s4nBG2vXXWhi5XCpPM/YUWezQjz/+gIi9I05xeNLIT0V5yGMwTuQ0Ol9tJXix1M0k8XEjiM3ZuPqjEM8bXlgTuXz4sCaEzb3PCih9fbnfC1sOSy1e+DLu1xodJ7k+4AHl5fkfxVDZ40RM9/A8=&lt;/diagram&gt;&lt;/mxfile&gt;">
    <defs/>
    <g>
        <g>
            <rect x="0" y="0" width="760" height="440" rx="48.4" ry="48.4" fill="none" stroke="#000000" pointer-events="all" style="stroke: light-dark(rgb(0, 0, 0), rgb(255, 255, 255));"/>
        </g>
        <g>
            <rect x="640" y="40" width="80" height="40" rx="6" ry="6" fill="none" stroke="#000000" pointer-events="all" style="stroke: light-dark(rgb(0, 0, 0), rgb(255, 255, 255));"/>
        </g>
        <g>
            <rect x="0" y="480" width="760" height="440" rx="48.4" ry="48.4" fill="none" stroke="#000000" pointer-events="all" style="stroke: light-dark(rgb(0, 0, 0), rgb(255, 255, 255));"/>
        </g>
        <g/>
        <g>
            <rect x="237.47" y="180" width="187.5" height="30" fill="none" stroke="none" pointer-events="all"/>
        </g>
        <g>
            <g transform="translate(-0.5 -0.5)">
                <switch>
                    <foreignObject style="overflow: visible; text-align: left;" pointer-events="none" width="100%" height="100%" requiredFeatures="http://www.w3.org/TR/SVG11/feature#Extensibility">
                        <div xmlns="http://www.w3.org/1999/xhtml" style="display: flex; align-items: unsafe center; justify-content: unsafe center; width: 186px; height: 1px; padding-top: 195px; margin-left: 238px;">
                            <div style="box-sizing: border-box; font-size: 0; text-align: center; color: #000000; ">
                                <div style="display: inline-block; font-size: 12px; font-family: &quot;Helvetica&quot;; color: light-dark(#000000, #ffffff); line-height: 1.2; pointer-events: all; white-space: normal; word-wrap: normal; ">
                                    <font style="font-size: 16px;">
                                        Paste bilibili url here ...
                                    </font>
                                </div>
                            </div>
                        </div>
                    </foreignObject>
                    <text x="331" y="199" fill="light-dark(#000000, #ffffff)" font-family="&quot;Helvetica&quot;" font-size="12px" text-anchor="middle">
                        Paste bilibili url here ...
                    </text>
                </switch>
            </g>
        </g>
        <g>
            <path d="M 223.86 201.21 L 216.2 208.95 C 214.9 210 213.07 210 211.77 208.95 L 208.83 205.97 C 207.87 204.7 207.87 202.93 208.83 201.65 L 219.15 191.19 C 220.42 190.24 222.16 190.25 223.42 191.22 L 226.57 194.5 M 222.68 199.27 C 224.09 199.85 225.7 199.45 226.69 198.29 L 236.39 188.39 C 237.47 186.92 237.28 184.87 235.95 183.63 L 233.3 180.94 C 231.92 180 230.08 180.15 228.87 181.3 L 221.8 188.39" fill="none" stroke="#0080f0" stroke-width="2" stroke-miterlimit="10" pointer-events="all" style="stroke: light-dark(rgb(0, 128, 240), rgb(50, 160, 255));"/>
        </g>
        <g/>
        <g>
            <rect x="198" y="160" width="375" height="90" rx="13.5" ry="13.5" fill="none" stroke="#000000" pointer-events="all" style="stroke: light-dark(rgb(0, 0, 0), rgb(255, 255, 255));"/>
        </g>
        <g>
            <path d="M 557.38 210 L 540.19 240 L 535.5 231 L 526.13 226.5 Z" fill="#ffffff" stroke="#0080f0" stroke-width="2" stroke-miterlimit="10" pointer-events="all" style="fill: light-dark(#ffffff, var(--ge-dark-color, #121212)); stroke: light-dark(rgb(0, 128, 240), rgb(50, 160, 255));"/>
            <path d="M 557.38 210 L 535.5 231" fill="#ffffff" stroke="#0080f0" stroke-width="2" stroke-miterlimit="10" pointer-events="all" style="fill: light-dark(#ffffff, var(--ge-dark-color, #121212)); stroke: light-dark(rgb(0, 128, 240), rgb(50, 160, 255));"/>
        </g>
        <g>
            <rect x="40" y="520" width="460" height="280" fill="none" stroke="none" pointer-events="all"/>
            <path d="M 205.01 728.81 L 363.23 660.24 L 205.01 592.16 Z M 65.85 800 C 51.37 800 40 789.75 40 780.33 L 40 539.74 C 40 528.66 53.48 520 65.76 520 L 472.68 520 C 490.92 520 500 531.63 500 539.67 L 500 780.05 C 500 790.44 487.99 800 473.69 800 Z" fill="#505050" stroke="none" pointer-events="all" style="fill: light-dark(rgb(80, 80, 80), rgb(168, 168, 168));"/>
        </g>
        <g>
            <rect x="520" y="520" width="200" height="400" rx="20" ry="20" fill="#ffffff" stroke="#000000" pointer-events="all" style="fill: light-dark(#ffffff, var(--ge-dark-color, #121212)); stroke: light-dark(rgb(0, 0, 0), rgb(255, 255, 255));"/>
        </g>
        <g>
            <rect x="528" y="590" width="184" height="40" rx="6" ry="6" fill="#f5f5f5" stroke="#666666" pointer-events="all" style="fill: light-dark(rgb(245, 245, 245), rgb(26, 26, 26)); stroke: light-dark(rgb(102, 102, 102), rgb(149, 149, 149));"/>
        </g>
        <g>
            <rect x="528" y="640" width="184" height="60" rx="9" ry="9" fill="#ffffff" stroke="#000000" pointer-events="all" style="fill: light-dark(#ffffff, var(--ge-dark-color, #121212)); stroke: light-dark(rgb(0, 0, 0), rgb(255, 255, 255));"/>
        </g>
        <g>
            <rect x="528" y="710" width="184" height="20" rx="3" ry="3" fill="#ffffff" stroke="#000000" pointer-events="all" style="fill: light-dark(#ffffff, var(--ge-dark-color, #121212)); stroke: light-dark(rgb(0, 0, 0), rgb(255, 255, 255));"/>
        </g>
        <g>
            <rect x="528" y="740" width="184" height="40" rx="6" ry="6" fill="#ffffff" stroke="#000000" pointer-events="all" style="fill: light-dark(#ffffff, var(--ge-dark-color, #121212)); stroke: light-dark(rgb(0, 0, 0), rgb(255, 255, 255));"/>
        </g>
        <g>
            <rect x="627" y="559" width="38" height="20" rx="10" ry="10" fill="#ffffff" stroke="#000000" pointer-events="all" style="fill: light-dark(#ffffff, var(--ge-dark-color, #121212)); stroke: light-dark(rgb(0, 0, 0), rgb(255, 255, 255));"/>
        </g>
        <g>
            <path d="M 638.5 569 C 640.35 566.47 643.1 565 646 565 C 648.9 565 651.65 566.47 653.5 569 C 651.65 571.54 648.9 573 646 573 C 643.1 573 640.35 571.54 638.5 569 Z" fill="#ffffff" stroke="#0080f0" stroke-miterlimit="10" pointer-events="all" style="fill: light-dark(#ffffff, var(--ge-dark-color, #121212)); stroke: light-dark(rgb(0, 128, 240), rgb(50, 160, 255));"/>
            <ellipse cx="646" cy="569" rx="2.6999999999999997" ry="3.068399744300021" fill="#ffffff" stroke="#0080f0" pointer-events="all" style="fill: light-dark(#ffffff, var(--ge-dark-color, #121212)); stroke: light-dark(rgb(0, 128, 240), rgb(50, 160, 255));"/>
            <ellipse cx="646" cy="569" rx="1.7999999999999998" ry="2.0455998295333475" fill="#ffffff" stroke="#0080f0" pointer-events="all" style="fill: light-dark(#ffffff, var(--ge-dark-color, #121212)); stroke: light-dark(rgb(0, 128, 240), rgb(50, 160, 255));"/>
        </g>
        <g>
            <rect x="533" y="559" width="92" height="20" rx="10" ry="10" fill="#ffffff" stroke="#000000" pointer-events="all" style="fill: light-dark(#ffffff, var(--ge-dark-color, #121212)); stroke: light-dark(rgb(0, 0, 0), rgb(255, 255, 255));"/>
        </g>
        <g>
            <ellipse cx="611.5" cy="569" rx="4" ry="4" fill="#ffffff" stroke="#0080f0" pointer-events="all" style="fill: light-dark(#ffffff, var(--ge-dark-color, #121212)); stroke: light-dark(rgb(0, 128, 240), rgb(50, 160, 255));"/>
            <path d="M 614.3 571.8 L 617.5 575" fill="#ffffff" stroke="#0080f0" stroke-miterlimit="10" pointer-events="all" style="fill: light-dark(#ffffff, var(--ge-dark-color, #121212)); stroke: light-dark(rgb(0, 128, 240), rgb(50, 160, 255));"/>
        </g>
        <g>
            <rect x="672" y="559" width="38" height="20" rx="10" ry="10" fill="#ffffff" stroke="#000000" pointer-events="all" style="fill: light-dark(#ffffff, var(--ge-dark-color, #121212)); stroke: light-dark(rgb(0, 0, 0), rgb(255, 255, 255));"/>
        </g>
        <g>
            <path d="M 692.57 565.12 L 696.5 565.12 L 696.5 575 L 685.5 575 L 685.5 565.12 L 689.43 565.12" fill="#ffffff" stroke="#0080f0" stroke-miterlimit="10" pointer-events="all" style="fill: light-dark(#ffffff, var(--ge-dark-color, #121212)); stroke: light-dark(rgb(0, 128, 240), rgb(50, 160, 255));"/>
            <path d="M 687.86 568.65 L 691 571.47 L 694.14 568.65 M 691 563 L 691 571.47" fill="none" stroke="#0080f0" stroke-miterlimit="10" pointer-events="all" style="stroke: light-dark(rgb(0, 128, 240), rgb(50, 160, 255));"/>
        </g>
        <g>
            <rect x="528" y="790" width="184" height="60" rx="9" ry="9" fill="#ffffff" stroke="#000000" pointer-events="all" style="fill: light-dark(#ffffff, var(--ge-dark-color, #121212)); stroke: light-dark(rgb(0, 0, 0), rgb(255, 255, 255));"/>
        </g>
        <g>
            <rect x="528" y="860" width="184" height="30" rx="4.5" ry="4.5" fill="#ffffff" stroke="#000000" pointer-events="all" style="fill: light-dark(#ffffff, var(--ge-dark-color, #121212)); stroke: light-dark(rgb(0, 0, 0), rgb(255, 255, 255));"/>
        </g>
        <g>
            <rect x="660.5" y="530" width="49.5" height="20" rx="10" ry="10" fill="#ffffff" stroke="#000000" pointer-events="all" style="fill: light-dark(#ffffff, var(--ge-dark-color, #121212)); stroke: light-dark(rgb(0, 0, 0), rgb(255, 255, 255));"/>
        </g>
        <g>
            <rect x="665" y="533.63" width="12.37" height="12.37" fill="#ffffff" stroke="#0080f0" pointer-events="all" style="fill: light-dark(#ffffff, var(--ge-dark-color, #121212)); stroke: light-dark(rgb(0, 128, 240), rgb(50, 160, 255));"/>
            <path d="M 680 531.77 L 670.1 541.82 L 668.87 542.13 L 669.18 540.9 L 679.23 531 Z" fill="#ffffff" stroke="#0080f0" stroke-miterlimit="10" pointer-events="all" style="fill: light-dark(#ffffff, var(--ge-dark-color, #121212)); stroke: light-dark(rgb(0, 128, 240), rgb(50, 160, 255));"/>
        </g>
        <g>
            <rect x="595.5" y="530" width="58" height="20" rx="10" ry="10" fill="#ffffff" stroke="#000000" pointer-events="all" style="fill: light-dark(#ffffff, var(--ge-dark-color, #121212)); stroke: light-dark(rgb(0, 0, 0), rgb(255, 255, 255));"/>
        </g>
        <g>
            <path d="M 605 536.77 C 605 536.34 605.34 536 605.75 536 L 619.25 536 C 619.66 536 620 536.34 620 536.77 L 620 543.69 C 620 543.9 619.92 544.09 619.78 544.24 C 619.64 544.38 619.45 544.46 619.25 544.46 L 618.5 544.46 L 618.5 546 L 617 544.46 L 605.75 544.46 C 605.55 544.46 605.36 544.38 605.22 544.24 C 605.08 544.09 605 543.9 605 543.69 Z" fill="#ffffff" stroke="#0080f0" stroke-miterlimit="10" pointer-events="all" style="fill: light-dark(#ffffff, var(--ge-dark-color, #121212)); stroke: light-dark(rgb(0, 128, 240), rgb(50, 160, 255));"/>
        </g>
        <g>
            <rect x="533" y="530" width="57" height="20" rx="10" ry="10" fill="#ffffff" stroke="#000000" pointer-events="all" style="fill: light-dark(#ffffff, var(--ge-dark-color, #121212)); stroke: light-dark(rgb(0, 0, 0), rgb(255, 255, 255));"/>
        </g>
        <g>
            <ellipse cx="547.5" cy="540" rx="7.5" ry="7.5" fill="#ffffff" stroke="#0080f0" pointer-events="all" style="fill: light-dark(#ffffff, var(--ge-dark-color, #121212)); stroke: light-dark(rgb(0, 128, 240), rgb(50, 160, 255));"/>
            <path d="M 547.5 532.5 L 547.5 547.5 M 555 540 L 540 540 M 547.5 532.5 C 550.01 534.17 551.53 536.98 551.53 540 C 551.53 543.02 550.01 545.83 547.5 547.5 C 544.99 545.83 543.47 543.02 543.47 540 C 543.47 536.98 544.99 534.17 547.5 532.5 Z M 542.25 545.25 C 545.39 543 549.61 543 552.75 545.25 M 542.25 534.75 C 545.39 537 549.61 537 552.75 534.75" fill="none" stroke="#0080f0" stroke-miterlimit="10" pointer-events="all" style="stroke: light-dark(rgb(0, 128, 240), rgb(50, 160, 255));"/>
        </g>
        <g>
            <rect x="40" y="810" width="460" height="110" rx="11" ry="11" fill="#ffffff" stroke="#000000" pointer-events="all" style="fill: light-dark(#ffffff, var(--ge-dark-color, #121212)); stroke: light-dark(rgb(0, 0, 0), rgb(255, 255, 255));"/>
        </g>
    </g>
    <switch>
        <g requiredFeatures="http://www.w3.org/TR/SVG11/feature#Extensibility"/>
        <a transform="translate(0,-5)" xlink:href="https://www.drawio.com/doc/faq/svg-export-text-problems" target="_blank">
            <text text-anchor="middle" font-size="10px" x="50%" y="100%">
                Text is not SVG - cannot display
            </text>
        </a>
    </switch>
</svg>